<svg width="14" height="19" viewBox="0 0 14 19" fill="none" xmlns="http://www.w3.org/2000/svg">
<path d="M1.18995 18.854C1.07783 18.9347 0.945619 18.9828 0.807883 18.9931C0.670148 19.0034 0.532243 18.9755 0.409374 18.9124C0.286504 18.8493 0.183443 18.7535 0.111553 18.6356C0.0396625 18.5176 0.00173575 18.3821 0.00195406 18.244V3.25C0.00195406 2.38805 0.344364 1.5614 0.953857 0.951903C1.56335 0.34241 2.39 0 3.25195 0H10.751C11.6126 0.000265069 12.4388 0.342655 13.0481 0.951903C13.6573 1.56115 13.9997 2.38739 14 3.249V18.245C14 18.383 13.9619 18.5184 13.89 18.6362C13.818 18.754 13.7149 18.8496 13.5921 18.9126C13.4693 18.9756 13.3314 19.0034 13.1938 18.9931C13.0561 18.9827 12.924 18.9346 12.812 18.854L7.00095 14.673L1.18895 18.853L1.18995 18.854ZM12.5 3.249C12.5 2.78487 12.3156 2.33975 11.9874 2.01156C11.6592 1.68337 11.2141 1.499 10.75 1.499H3.25295C2.78883 1.499 2.34371 1.68337 2.01552 2.01156C1.68733 2.33975 1.50295 2.78487 1.50295 3.249V16.781L6.56495 13.141C6.69255 13.0492 6.84577 12.9998 7.00295 12.9998C7.16014 12.9998 7.31336 13.0492 7.44095 13.141L12.501 16.781V3.25L12.5 3.249Z"/>
</svg>
