<svg width="20" height="19" viewBox="0 0 20 19" fill="none" xmlns="http://www.w3.org/2000/svg">
<path d="M3.25 15C2.38805 15 1.5614 14.6576 0.951903 14.0481C0.34241 13.4386 0 12.612 0 11.75V3.25C0 2.38805 0.34241 1.5614 0.951903 0.951903C1.5614 0.34241 2.38805 0 3.25 0H16.75C17.1768 0 17.5994 0.0840637 17.9937 0.247391C18.388 0.410719 18.7463 0.650112 19.0481 0.951903C19.3499 1.25369 19.5893 1.61197 19.7526 2.00628C19.9159 2.40059 20 2.8232 20 3.25V11.75C20 12.1768 19.9159 12.5994 19.7526 12.9937C19.5893 13.388 19.3499 13.7463 19.0481 14.0481C18.7463 14.3499 18.388 14.5893 17.9937 14.7526C17.5994 14.9159 17.1768 15 16.75 15H11.012L6 18.75C5.81428 18.889 5.59356 18.9736 5.36251 18.9943C5.13146 19.015 4.89922 18.971 4.69176 18.8672C4.4843 18.7634 4.30981 18.6039 4.18782 18.4066C4.06582 18.2093 4.00114 17.982 4.001 17.75V15H3.251H3.25ZM10.514 13.5H16.75C17.2141 13.5 17.6592 13.3156 17.9874 12.9874C18.3156 12.6592 18.5 12.2141 18.5 11.75V3.25C18.5 2.78587 18.3156 2.34075 17.9874 2.01256C17.6592 1.68437 17.2141 1.5 16.75 1.5H3.25C2.78587 1.5 2.34075 1.68437 2.01256 2.01256C1.68437 2.34075 1.5 2.78587 1.5 3.25V11.75C1.5 12.716 2.284 13.5 3.25 13.5H5.499V17.25L10.514 13.5Z" />
</svg>
