<svg width="22" height="13" viewBox="0 0 22 13" fill="none" xmlns="http://www.w3.org/2000/svg">
<path d="M3.06066 0.93934C2.47487 0.353553 1.52513 0.353553 0.93934 0.93934C0.353553 1.52513 0.353554 2.47487 0.93934 3.06066L3.06066 0.93934ZM10.2929 10.2929L11.3536 9.23223L11.3536 9.23223L10.2929 10.2929ZM11.7071 10.2929L10.6464 9.23223L10.6464 9.23223L11.7071 10.2929ZM21.0607 3.06066C21.6464 2.47487 21.6464 1.52513 21.0607 0.93934C20.4749 0.353554 19.5251 0.353554 18.9393 0.93934L21.0607 3.06066ZM0.93934 3.06066L9.23223 11.3536L11.3536 9.23223L3.06066 0.93934L0.93934 3.06066ZM12.7678 11.3536L21.0607 3.06066L18.9393 0.93934L10.6464 9.23223L12.7678 11.3536ZM9.23223 11.3536C10.2085 12.3299 11.7915 12.3299 12.7678 11.3536L10.6464 9.23223C10.8417 9.03697 11.1583 9.03697 11.3536 9.23223L9.23223 11.3536Z" />
</svg>
