<svg width="24" height="25" viewBox="0 0 24 25" fill="none" xmlns="http://www.w3.org/2000/svg">
<path d="M17.75 3.5C18.612 3.5 19.4386 3.84241 20.0481 4.4519C20.6576 5.0614 21 5.88805 21 6.75V18.25C21 19.112 20.6576 19.9386 20.0481 20.5481C19.4386 21.1576 18.612 21.5 17.75 21.5H6.25C5.38805 21.5 4.5614 21.1576 3.9519 20.5481C3.34241 19.9386 3 19.112 3 18.25V6.75C3 5.88805 3.34241 5.0614 3.9519 4.4519C4.5614 3.84241 5.38805 3.5 6.25 3.5H17.75ZM18.33 19.901L12.525 14.215C12.3984 14.0909 12.2318 14.0156 12.055 14.0026C11.8782 13.9896 11.7024 14.0397 11.559 14.144L11.475 14.214L5.668 19.901C5.85 19.965 6.046 20 6.25 20H17.75C17.953 20 18.149 19.965 18.33 19.901L12.525 14.215L18.33 19.9V19.901ZM17.75 5H6.25C5.78587 5 5.34075 5.18437 5.01256 5.51256C4.68437 5.84075 4.5 6.28587 4.5 6.75V18.25C4.5 18.458 4.536 18.658 4.603 18.844L10.426 13.143C10.8252 12.7522 11.3554 12.5239 11.9136 12.5025C12.4718 12.481 13.018 12.668 13.446 13.027L13.574 13.143L19.396 18.845C19.463 18.659 19.5 18.459 19.5 18.25V6.75C19.5 6.28587 19.3156 5.84075 18.9874 5.51256C18.6592 5.18437 18.2141 5 17.75 5ZM15.252 7C15.8493 7 16.4221 7.23726 16.8444 7.6596C17.2667 8.08193 17.504 8.65473 17.504 9.252C17.504 9.84927 17.2667 10.4221 16.8444 10.8444C16.4221 11.2667 15.8493 11.504 15.252 11.504C14.6547 11.504 14.0819 11.2667 13.6596 10.8444C13.2373 10.4221 13 9.84927 13 9.252C13 8.65473 13.2373 8.08193 13.6596 7.6596C14.0819 7.23726 14.6547 7 15.252 7V7ZM15.252 8.5C15.0526 8.5 14.8613 8.57923 14.7203 8.72026C14.5792 8.86128 14.5 9.05256 14.5 9.252C14.5 9.45144 14.5792 9.64272 14.7203 9.78374C14.8613 9.92477 15.0526 10.004 15.252 10.004C15.4514 10.004 15.6427 9.92477 15.7837 9.78374C15.9248 9.64272 16.004 9.45144 16.004 9.252C16.004 9.05256 15.9248 8.86128 15.7837 8.72026C15.6427 8.57923 15.4514 8.5 15.252 8.5Z" fill="#FCFCFC"/>
</svg>
