<svg width="24" height="24" viewBox="0 0 24 24" fill="none" xmlns="http://www.w3.org/2000/svg">
<path d="M22 12L22.7809 11.3753L23.2806 12L22.7809 12.6247L22 12ZM13 13C12.4477 13 12 12.5523 12 12C12 11.4477 12.4477 11 13 11V13ZM18.7809 6.3753L22.7809 11.3753L21.2191 12.6247L17.2191 7.6247L18.7809 6.3753ZM22.7809 12.6247L18.7809 17.6247L17.2191 16.3753L21.2191 11.3753L22.7809 12.6247ZM22 13H13V11H22V13Z" fill="#CCD2E3"/>
<path d="M14 8.13193V7.38851C14 5.77017 14 4.961 13.526 4.4015C13.0521 3.84201 12.2539 3.70899 10.6576 3.44293L8.98639 3.1644C5.7433 2.62388 4.12175 2.35363 3.06088 3.25232C2 4.15102 2 5.79493 2 9.08276V14.9172C2 18.2051 2 19.849 3.06088 20.7477C4.12175 21.6464 5.7433 21.3761 8.98639 20.8356L10.6576 20.5571C12.2539 20.291 13.0521 20.158 13.526 19.5985C14 19.039 14 18.2298 14 16.6115V16.066" stroke="#CCD2E3" stroke-width="2"/>
</svg>
