<svg width="22" height="13" viewBox="0 0 22 13" fill="none" xmlns="http://www.w3.org/2000/svg">
<path d="M18.9393 12.0607C19.5251 12.6464 20.4749 12.6464 21.0607 12.0607C21.6464 11.4749 21.6464 10.5251 21.0607 9.93934L18.9393 12.0607ZM11.7071 2.70711L10.6464 3.76777L10.6464 3.76777L11.7071 2.70711ZM10.2929 2.70711L11.3536 3.76777L11.3536 3.76777L10.2929 2.70711ZM0.939339 9.93934C0.353553 10.5251 0.353553 11.4749 0.939339 12.0607C1.52513 12.6464 2.47487 12.6464 3.06066 12.0607L0.939339 9.93934ZM21.0607 9.93934L12.7678 1.64645L10.6464 3.76777L18.9393 12.0607L21.0607 9.93934ZM9.23223 1.64645L0.939339 9.93934L3.06066 12.0607L11.3536 3.76777L9.23223 1.64645ZM12.7678 1.64645C11.7915 0.670133 10.2085 0.670137 9.23223 1.64645L11.3536 3.76777C11.1583 3.96303 10.8417 3.96303 10.6464 3.76777L12.7678 1.64645Z" />
</svg>
